<?xml version="1.0" encoding="UTF-8" standalone="no"?>
<svg width="33px" height="67px" viewBox="0 0 33 67" version="1.1" xmlns="http://www.w3.org/2000/svg" xmlns:xlink="http://www.w3.org/1999/xlink" xmlns:sketch="http://www.bohemiancoding.com/sketch/ns">
    <!-- Generator: Sketch 3.4.2 (15857) - http://www.bohemiancoding.com/sketch -->
    <title>clipart__rocket</title>
    <desc>Created with Sketch.</desc>
    <defs></defs>
    <g id="Page-1" stroke="none" stroke-width="1" fill="none" fill-rule="evenodd" sketch:type="MSPage">
        <g id="clipart__rocket" sketch:type="MSLayerGroup" transform="translate(16.500000, 35.500000) rotate(-45.000000) translate(-16.500000, -35.500000) translate(-9.000000, 10.000000)">
            <g id="Group" sketch:type="MSShapeGroup">
                <g id="rocket">
                    <g id="Group" transform="translate(3.000000, 33.000000)" fill="#FFFFFF" opacity="0.7">
                        <path d="M9.065,2.454 C9.524,1.995 9.524,1.251 9.065,0.792 C8.606,0.334 7.862,0.334 7.403,0.792 C6.944,1.251 2.666,7.19 2.666,7.19 C2.666,7.19 8.606,2.913 9.065,2.454 L9.065,2.454 Z" id="Shape"></path>
                        <path d="M6.56,10.044 C7.018,9.585 7.018,8.841 6.56,8.382 C6.101,7.924 5.357,7.924 4.898,8.382 C4.44,8.841 0.162,14.78 0.162,14.78 C0.162,14.78 6.101,10.503 6.56,10.044 L6.56,10.044 Z" id="Shape"></path>
                        <path d="M13.439,8.468 C13.898,8.008 13.898,7.265 13.439,6.805 C12.981,6.347 12.236,6.347 11.777,6.805 C11.319,7.265 7.041,13.204 7.041,13.204 C7.041,13.204 12.98,8.926 13.439,8.468 L13.439,8.468 Z" id="Shape"></path>
                    </g>
                    <rect id="Rectangle-path" fill="#ECECEF" transform="translate(16.200722, 34.796546) rotate(45.000000) translate(-16.200722, -34.796546) " x="11.5347667" y="33.2580612" width="9.33191051" height="3.07697049"></rect>
                    <rect id="Rectangle-path" fill="#FFFFFF" transform="translate(14.551707, 33.149472) rotate(45.004051) translate(-14.551707, -33.149472) " x="12.2185646" y="31.6108776" width="4.6662852" height="3.07718808"></rect>
                    <g id="Group">
                        <path d="M18.065,32.934 C22.95,37.82 24.081,45.032 21.465,50.999 C23.272,50.208 24.965,49.078 26.444,47.6 C32.809,41.236 32.809,30.918 26.445,24.555 C20.081,18.192 9.764,18.191 3.401,24.555 C1.922,26.034 0.791,27.727 0,29.533 C5.968,26.919 13.18,28.049 18.065,32.934 L18.065,32.934 Z" id="Shape" fill="#E95F54"></path>
                        <path d="M29.004,27.878 L20.619,36.264 C23.248,40.776 23.535,46.276 21.465,50.999 C23.272,50.208 24.965,49.078 26.444,47.6 C31.792,42.252 32.643,34.115 29.004,27.878 L29.004,27.878 Z" id="Shape" fill="#CC413D"></path>
                        <path d="M16.567,34.432 C17.984,35.849 19.129,37.436 20.005,39.126 C25.761,37.176 31.88,33.355 37.31,27.924 C45.938,19.297 50.513,8.933 49.955,1.046 C42.066,0.486 31.703,5.061 23.075,13.688 C17.644,19.119 13.824,25.238 11.875,30.995 C13.563,31.87 15.151,33.015 16.567,34.432 L16.567,34.432 Z" id="Shape" fill="#F7AA26"></path>
                        <path d="M49.955,1.046 C49.929,1.044 49.9,1.046 49.874,1.043 L16.525,34.392 C16.538,34.406 16.554,34.418 16.567,34.432 C17.984,35.849 19.129,37.436 20.005,39.126 C25.761,37.176 31.88,33.355 37.31,27.924 C45.938,19.297 50.513,8.933 49.955,1.046 L49.955,1.046 Z" id="Shape" fill="#EF812D"></path>
                        <path d="M41.787,9.213 C43.576,11.002 45.266,12.818 46.863,14.643 C49.155,9.838 50.243,5.111 49.955,1.045 C45.889,0.756 41.161,1.843 36.356,4.135 C38.181,5.733 39.997,7.423 41.787,9.213 L41.787,9.213 Z" id="Shape" fill="#E95F54"></path>
                        <path d="M49.876,1.042 L41.745,9.172 C41.758,9.186 41.772,9.199 41.786,9.213 C43.575,11.002 45.265,12.818 46.862,14.643 C49.154,9.838 50.242,5.111 49.954,1.045 C49.928,1.044 49.901,1.043 49.876,1.042 L49.876,1.042 Z" id="Shape" fill="#CC413D"></path>
                        <path d="M27.144,23.856 C24.713,24.475 20.985,26.96 17.397,30.548 C13.809,34.135 11.324,37.862 10.705,40.294 C13.136,39.675 16.864,37.19 20.452,33.602 C24.04,30.015 26.524,26.287 27.144,23.856 L27.144,23.856 Z" id="Shape" fill="#E95F54"></path>
                        <path d="M27.028,23.89 L10.739,40.178 C10.729,40.217 10.715,40.257 10.705,40.295 C13.136,39.676 16.864,37.191 20.452,33.603 C24.039,30.015 26.524,26.288 27.143,23.857 C27.106,23.866 27.065,23.88 27.028,23.89 L27.028,23.89 Z" id="Shape" fill="#B73838"></path>
                        <path d="M30.193,20.806 C27.988,18.601 27.987,15.013 30.193,12.806 C32.399,10.601 35.987,10.601 38.193,12.807 C40.399,15.012 40.399,18.601 38.193,20.807 C35.987,23.012 32.399,23.012 30.193,20.806 L30.193,20.806 L30.193,20.806 Z" id="Shape" fill="#1AB1BF"></path>
                        <path d="M36.973,14.027 C35.44,12.494 32.946,12.494 31.412,14.026 C29.88,15.56 29.881,18.053 31.414,19.586 C32.945,21.118 35.439,21.119 36.973,19.585 C38.504,18.053 38.504,15.56 36.973,14.027 L36.973,14.027 L36.973,14.027 Z" id="Shape" fill="#FFFFFF"></path>
                        <g transform="translate(30.000000, 12.000000)" id="Shape">
                            <path d="M8.193,0.806 C8.179,0.793 8.166,0.781 8.151,0.766 L6.929,1.987 C6.943,2 6.958,2.013 6.973,2.027 C8.504,3.56 8.504,6.053 6.973,7.585 C5.44,9.119 2.946,9.118 1.414,7.586 C1.399,7.572 1.388,7.556 1.374,7.543 L0.155,8.762 C0.169,8.777 0.179,8.793 0.192,8.806 C2.398,11.012 5.986,11.013 8.192,8.806 C10.399,6.6 10.399,3.011 8.193,0.806 L8.193,0.806 Z" fill="#1A96A5"></path>
                            <path d="M6.973,7.585 C8.504,6.053 8.504,3.56 6.973,2.027 C6.958,2.013 6.943,2.001 6.929,1.987 L1.374,7.542 C1.388,7.555 1.399,7.571 1.414,7.585 C2.946,9.118 5.44,9.119 6.973,7.585 L6.973,7.585 Z" fill="#D2ECF9"></path>
                        </g>
                        <g transform="translate(30.000000, 13.000000)" id="Shape" fill="#E96054">
                            <path d="M4.133,3.784 L4.372,3.545 L4.155,3.582 L4.133,3.784 Z"></path>
                            <path d="M4.73,3.187 L5.227,2.69 L5.065,2.58 L4.61,2.818 L4.73,3.187 Z"></path>
                            <path d="M2.459,2.639 L2.829,2.626 L2.967,2.787 L2.951,3.113 L3.329,3.253 L3.583,3.015 L3.789,3.013 L3.989,3.265 L4.406,3.093 L4.354,2.766 L4.492,2.575 L4.898,2.63 L5.032,2.227 C5.032,2.227 4.803,2.02 4.777,2.027 C4.748,2.034 4.779,1.763 4.779,1.763 L5.032,1.564 L4.865,1.167 L4.527,1.192 L4.417,0.993 L4.391,0.645 L4.004,0.552 L3.791,0.795 L3.572,0.785 L3.353,0.537 L2.942,0.698 L2.968,0.999 L2.814,1.168 L2.46,1.124 L2.294,1.56 L2.534,1.774 L2.559,1.991 L2.274,2.219 L2.459,2.639 L2.459,2.639 Z M3.508,1.309 C3.853,1.224 4.199,1.421 4.28,1.749 C4.362,2.077 4.15,2.412 3.806,2.497 C3.461,2.582 3.116,2.386 3.034,2.058 C2.953,1.729 3.165,1.395 3.508,1.309 L3.508,1.309 Z"></path>
                            <path d="M1.673,6.088 L1.993,5.86 L2.048,5.869 L2.503,5.413 C2.313,5.396 2.125,5.306 1.988,5.146 C1.717,4.831 1.743,4.365 2.048,4.107 C2.352,3.848 2.819,3.894 3.091,4.21 C3.2,4.338 3.26,4.49 3.273,4.644 L3.754,4.163 L3.682,4.002 L3.829,3.642 L3.443,3.296 L3.138,3.482 L2.877,3.411 L2.736,3.016 L2.188,3.072 L2.087,3.435 L1.869,3.577 L1.478,3.396 L1.127,3.812 L1.335,4.191 L1.237,4.42 L0.883,4.574 L0.932,5.044 L1.319,5.185 L1.429,5.398 L1.268,5.741 L1.673,6.088 L1.673,6.088 Z"></path>
                        </g>
                        <g transform="translate(32.000000, 15.000000)" id="Shape" fill="#CC413C">
                            <path d="M5.073,3.063 L5.196,2.819 L5.664,2.721 L5.763,2.134 L5.332,1.938 L5.295,1.656 L5.528,1.314 L5.184,0.818 L4.753,0.984 L4.505,0.818 L4.444,0.433 L3.878,0.359 L3.681,0.739 L3.41,0.818 L3.227,0.691 L2.73,1.188 L2.744,1.23 L2.576,1.513 L2.372,1.547 L2.134,1.786 L2.093,2.172 L2.456,2.293 C2.456,2.293 2.598,2.674 2.56,2.674 C2.522,2.674 2.301,3.005 2.301,3.005 L2.597,3.47 L3.089,3.274 L3.322,3.47 L3.36,3.898 L3.938,3.984 L4.111,3.605 L4.37,3.542 L4.764,3.763 L5.196,3.47 L5.073,3.063 L5.073,3.063 Z M3.927,2.962 C3.467,2.962 3.096,2.608 3.096,2.17 C3.096,1.732 3.467,1.378 3.927,1.378 C4.386,1.378 4.758,1.732 4.758,2.17 C4.758,2.608 4.386,2.962 3.927,2.962 L3.927,2.962 Z"></path>
                            <path d="M2.26,2.784 L2.156,2.33 L1.786,2.234 L1.754,2.162 L1.273,2.643 C1.294,2.868 1.212,3.095 1.032,3.249 C0.881,3.376 0.69,3.429 0.504,3.412 L0.049,3.868 L0.269,3.904 L0.424,4.359 L0.922,4.287 C0.922,4.287 1.021,3.939 0.999,3.913 C0.978,3.887 1.28,3.777 1.28,3.777 L1.626,3.939 L1.958,3.554 L1.754,3.214 L1.906,2.993 L2.26,2.784 L2.26,2.784 Z"></path>
                        </g>
                    </g>
                </g>
                <path d="M8.546,23.785 L9.832,25.966 L9.631,26.344 L8.127,23.785 L8.546,23.785 L8.546,23.785 Z M9.451,23.785 L10.505,25.623 L11.382,24.122 L10.522,24.122 L10.733,24.472 L10.529,24.833 L9.936,23.785 L11.974,23.785 L10.505,26.347 L9.031,23.785 L9.451,23.785 L9.451,23.785 Z" id="Shape" fill="#FFFFFF"></path>
            </g>
        </g>
    </g>
</svg>