<?xml version="1.0" encoding="utf-8"?>
<!-- Generator: Adobe Illustrator 15.0.0, SVG Export Plug-In . SVG Version: 6.00 Build 0)  -->
<!DOCTYPE svg PUBLIC "-//W3C//DTD SVG 1.1//EN" "http://www.w3.org/Graphics/SVG/1.1/DTD/svg11.dtd">
<svg version="1.1" id="Слой_1" xmlns="http://www.w3.org/2000/svg" xmlns:xlink="http://www.w3.org/1999/xlink" x="0px" y="0px"
	 width="50px" height="49.999px" viewBox="0 0 50 49.999" enable-background="new 0 0 50 49.999" xml:space="preserve">
<g>
	<g id="rocket">
		<g>
			<path opacity="0.7" fill="#FFFFFF" d="M12.065,34.454c0.459-0.459,0.459-1.203,0-1.662c-0.459-0.458-1.203-0.458-1.662,0
				c-0.459,0.459-4.737,6.398-4.737,6.398S11.606,34.913,12.065,34.454z"/>
			<path opacity="0.7" fill="#FFFFFF" d="M9.56,42.044c0.458-0.459,0.458-1.203,0-1.662c-0.459-0.458-1.203-0.458-1.662,0
				c-0.458,0.459-4.736,6.398-4.736,6.398S9.101,42.503,9.56,42.044z"/>
			<path opacity="0.7" fill="#FFFFFF" d="M16.439,40.468c0.459-0.46,0.459-1.203,0-1.663c-0.458-0.458-1.203-0.458-1.662,0
				c-0.458,0.46-4.736,6.399-4.736,6.399S15.98,40.926,16.439,40.468z"/>
		</g>
		
			<rect x="11.536" y="32.259" transform="matrix(0.7071 0.7071 -0.7071 0.7071 28.6425 -1.5581)" fill="#ECECEF" width="9.332" height="3.077"/>
		
			<rect x="12.219" y="30.609" transform="matrix(0.7071 0.7072 -0.7072 0.7071 26.9967 -0.8732)" fill="#FFFFFF" width="4.666" height="3.077"/>
		<g>
			<path fill="#E95F54" d="M18.065,31.934c4.885,4.886,6.016,12.098,3.4,18.065c1.807-0.791,3.5-1.921,4.979-3.399
				c6.365-6.364,6.365-16.682,0.001-23.045c-6.364-6.363-16.681-6.364-23.044,0C1.922,25.034,0.791,26.727,0,28.533
				C5.968,25.919,13.18,27.049,18.065,31.934z"/>
			<path fill="#CC413D" d="M29.004,26.878l-8.385,8.386c2.629,4.512,2.916,10.012,0.846,14.735c1.807-0.791,3.5-1.921,4.979-3.399
				C31.792,41.252,32.643,33.115,29.004,26.878z"/>
			<path fill="#F7AA26" d="M16.567,33.432c1.417,1.417,2.562,3.004,3.438,4.694c5.756-1.95,11.875-5.771,17.305-11.202
				c8.628-8.627,13.203-18.991,12.645-26.878c-7.889-0.56-18.252,4.015-26.88,12.642c-5.431,5.431-9.251,11.55-11.2,17.307
				C13.563,30.87,15.151,32.015,16.567,33.432z"/>
			<path fill="#EF812D" d="M49.955,0.046c-0.026-0.002-0.055,0-0.081-0.003L16.525,33.392c0.013,0.014,0.029,0.026,0.042,0.04
				c1.417,1.417,2.562,3.004,3.438,4.694c5.756-1.95,11.875-5.771,17.305-11.202C45.938,18.297,50.513,7.933,49.955,0.046z"/>
			<path fill="#E95F54" d="M41.787,8.213c1.789,1.789,3.479,3.605,5.076,5.43c2.292-4.805,3.38-9.532,3.092-13.598
				c-4.066-0.289-8.794,0.798-13.599,3.09C38.181,4.733,39.997,6.423,41.787,8.213z"/>
			<path fill="#CC413D" d="M49.876,0.042l-8.131,8.13c0.013,0.014,0.027,0.027,0.041,0.041c1.789,1.789,3.479,3.605,5.076,5.43
				c2.292-4.805,3.38-9.532,3.092-13.598C49.928,0.044,49.901,0.043,49.876,0.042z"/>
			<path fill="#E95F54" d="M27.144,22.856c-2.431,0.619-6.159,3.104-9.747,6.692c-3.588,3.587-6.073,7.314-6.692,9.746
				c2.431-0.619,6.159-3.104,9.747-6.692C24.04,29.015,26.524,25.287,27.144,22.856z"/>
			<path fill="#B73838" d="M27.028,22.89L10.739,39.178c-0.01,0.039-0.024,0.079-0.034,0.117c2.431-0.619,6.159-3.104,9.747-6.692
				c3.587-3.588,6.072-7.315,6.691-9.746C27.106,22.866,27.065,22.88,27.028,22.89z"/>
			<path fill="#1AB1BF" d="M30.193,19.806c-2.205-2.205-2.206-5.793,0-8c2.206-2.205,5.794-2.205,8,0.001
				c2.206,2.205,2.206,5.794,0,8C35.987,22.012,32.399,22.012,30.193,19.806L30.193,19.806z"/>
			<path fill="#FFFFFF" d="M36.973,13.027c-1.533-1.533-4.027-1.533-5.561-0.001c-1.532,1.534-1.531,4.027,0.002,5.56
				c1.531,1.532,4.025,1.533,5.559-0.001C38.504,17.053,38.504,14.56,36.973,13.027L36.973,13.027z"/>
			<g>
				<path fill="#1A96A5" d="M38.193,11.806c-0.014-0.013-0.027-0.025-0.042-0.04l-1.222,1.221c0.014,0.013,0.029,0.026,0.044,0.04
					c1.531,1.533,1.531,4.026,0,5.558c-1.533,1.534-4.027,1.533-5.559,0.001c-0.015-0.014-0.026-0.03-0.04-0.043l-1.219,1.219
					c0.014,0.015,0.024,0.031,0.037,0.044c2.206,2.206,5.794,2.207,8,0C40.399,17.6,40.399,14.011,38.193,11.806z"/>
				<path fill="#D2ECF9" d="M36.973,18.585c1.531-1.532,1.531-4.025,0-5.558c-0.015-0.014-0.03-0.026-0.044-0.04l-5.555,5.555
					c0.014,0.013,0.025,0.029,0.04,0.043C32.946,20.118,35.44,20.119,36.973,18.585z"/>
			</g>
			<g>
				<polygon fill="#E96054" points="34.133,15.784 34.372,15.545 34.155,15.582 				"/>
				<polygon fill="#E96054" points="34.73,15.187 35.227,14.69 35.065,14.58 34.61,14.818 				"/>
				<path fill="#E96054" d="M32.459,14.639l0.37-0.013l0.138,0.161l-0.016,0.326l0.378,0.14l0.254-0.238l0.206-0.002l0.2,0.252
					l0.417-0.172l-0.052-0.327l0.138-0.191l0.406,0.055l0.134-0.403c0,0-0.229-0.207-0.255-0.2
					c-0.029,0.007,0.002-0.264,0.002-0.264l0.253-0.199l-0.167-0.397l-0.338,0.025l-0.11-0.199l-0.026-0.348l-0.387-0.093
					l-0.213,0.243l-0.219-0.01l-0.219-0.248l-0.411,0.161l0.026,0.301l-0.154,0.169l-0.354-0.044l-0.166,0.436l0.24,0.214
					l0.025,0.217l-0.285,0.228L32.459,14.639z M33.508,13.309c0.345-0.085,0.691,0.112,0.772,0.44
					c0.082,0.328-0.13,0.663-0.474,0.748c-0.345,0.085-0.69-0.111-0.772-0.439C32.953,13.729,33.165,13.395,33.508,13.309z"/>
				<path fill="#E96054" d="M31.673,18.088l0.32-0.228l0.055,0.009l0.455-0.456c-0.19-0.017-0.378-0.107-0.515-0.267
					c-0.271-0.315-0.245-0.781,0.06-1.039c0.304-0.259,0.771-0.213,1.043,0.103c0.109,0.128,0.169,0.28,0.182,0.434l0.481-0.481
					l-0.072-0.161l0.147-0.36l-0.386-0.346l-0.305,0.186l-0.261-0.071l-0.141-0.395l-0.548,0.056l-0.101,0.363l-0.218,0.142
					l-0.391-0.181l-0.351,0.416l0.208,0.379l-0.098,0.229l-0.354,0.154l0.049,0.47l0.387,0.141l0.11,0.213l-0.161,0.343
					L31.673,18.088z"/>
			</g>
			<g>
				<path fill="#CC413C" d="M37.073,17.063l0.123-0.244l0.468-0.098l0.099-0.587l-0.431-0.196l-0.037-0.282l0.233-0.342
					l-0.344-0.496l-0.431,0.166l-0.248-0.166l-0.061-0.385l-0.566-0.074l-0.197,0.38l-0.271,0.079l-0.183-0.127l-0.497,0.497
					l0.014,0.042l-0.168,0.283l-0.204,0.034l-0.238,0.239l-0.041,0.386l0.363,0.121c0,0,0.142,0.381,0.104,0.381
					s-0.259,0.331-0.259,0.331l0.296,0.465l0.492-0.196l0.233,0.196l0.038,0.428l0.578,0.086l0.173-0.379l0.259-0.063l0.394,0.221
					l0.432-0.293L37.073,17.063z M35.927,16.962c-0.46,0-0.831-0.354-0.831-0.792c0-0.438,0.371-0.792,0.831-0.792
					c0.459,0,0.831,0.354,0.831,0.792C36.758,16.608,36.386,16.962,35.927,16.962z"/>
				<path fill="#CC413C" d="M34.26,16.784l-0.104-0.454l-0.37-0.096l-0.032-0.072l-0.481,0.481c0.021,0.225-0.061,0.452-0.241,0.606
					c-0.151,0.127-0.342,0.18-0.528,0.163l-0.455,0.456l0.22,0.036l0.155,0.455l0.498-0.072c0,0,0.099-0.348,0.077-0.374
					c-0.021-0.026,0.281-0.136,0.281-0.136l0.346,0.162l0.332-0.385l-0.204-0.34l0.152-0.221L34.26,16.784z"/>
			</g>
		</g>
	</g>
	<path fill="#FFFFFF" d="M8.546,22.785l1.286,2.181l-0.201,0.378l-1.504-2.559H8.546z M9.451,22.785l1.054,1.838l0.877-1.501h-0.86
		l0.211,0.35l-0.204,0.361l-0.593-1.048h2.038l-1.469,2.562l-1.474-2.562H9.451z"/>
</g>
</svg>
