<?xml version="1.0" encoding="UTF-8" standalone="no"?>
<svg width="165px" height="120px" viewBox="0 0 165 120" version="1.1" xmlns="http://www.w3.org/2000/svg" xmlns:xlink="http://www.w3.org/1999/xlink" xmlns:sketch="http://www.bohemiancoding.com/sketch/ns">
    <!-- Generator: Sketch 3.4.2 (15857) - http://www.bohemiancoding.com/sketch -->
    <title>Page-1</title>
    <desc>Created with Sketch.</desc>
    <defs></defs>
    <g id="Page-1" stroke="none" stroke-width="1" sketch:type="MSPage">
        <g id="icon__website" sketch:type="MSLayerGroup" transform="translate(0.000000, -1.000000)">
            <g id="Page-1" sketch:type="MSShapeGroup">
                <g id="icon__website">
                    <g id="Page-1">
                        <g id="Services">
                            <g id="Mask-+-Rectangle-path-+-Shape">
                                <g id="Rectangle-path-+-Shape" transform="translate(0.818182, 0.636364)">
                                    <rect id="Rectangle-path" x="19.410478" y="37.4800429" width="125.658581" height="21.8986789"></rect>
                                    <path d="M159.320631,0.39639964 L4.79453848,0.39639964 C2.16490683,0.39639964 0.0337020939,2.5288295 0.0337020939,5.1599728 L0.0337020939,115.007626 C0.0337020939,117.638769 2.16490683,119.771199 4.79453848,119.771199 L159.320631,119.771199 C161.950263,119.771199 164.081468,117.638769 164.081468,115.007626 L164.081468,5.1599728 C164.081468,2.5288295 161.950263,0.39639964 159.320631,0.39639964 L159.320631,0.39639964 L159.320631,0.39639964 L159.320631,0.39639964 Z M47.4942566,10.5804719 C50.4298192,10.5804719 52.8085187,12.9605388 52.8085187,15.897789 C52.8085187,18.8350392 50.4298192,21.215106 47.4942566,21.215106 C44.5586939,21.215106 42.1799944,18.8350392 42.1799944,15.897789 C42.1799944,12.9605388 44.5586939,10.5804719 47.4942566,10.5804719 L47.4942566,10.5804719 L47.4942566,10.5804719 L47.4942566,10.5804719 Z M33.4867416,10.5804719 C36.4223042,10.5804719 38.8010037,12.9605388 38.8010037,15.897789 C38.8010037,18.8350392 36.4223042,21.215106 33.4867416,21.215106 C30.5511789,21.215106 28.1724795,18.8350392 28.1724795,15.897789 C28.1724795,12.9605388 30.5477415,10.5804719 33.4867416,10.5804719 L33.4867416,10.5804719 L33.4867416,10.5804719 L33.4867416,10.5804719 Z M18.8501775,10.5804719 C21.7857401,10.5804719 24.1644396,12.9605388 24.1644396,15.897789 C24.1644396,18.8350392 21.7857401,21.215106 18.8501775,21.215106 C15.9146148,21.215106 13.5359153,18.8350392 13.5359153,15.897789 C13.5359153,12.9605388 15.9146148,10.5804719 18.8501775,10.5804719 L18.8501775,10.5804719 L18.8501775,10.5804719 L18.8501775,10.5804719 Z M154.136992,111.482238 L144.360949,111.482238 L144.360949,66.1749821 L87.1793512,66.1749821 L87.1793512,111.482238 L76.5886386,111.482238 L76.5886386,66.1749821 L19.410478,66.1749821 L19.410478,111.482238 L9.97474096,111.482238 L9.97474096,30.2400995 L154.136992,30.2400995 L154.136992,111.482238 L154.136992,111.482238 L154.136992,111.482238 L154.136992,111.482238 Z" id="Shape"></path>
                                </g>
                            </g>
                        </g>
                    </g>
                </g>
            </g>
        </g>
    </g>
</svg>