<?xml version="1.0" encoding="utf-8"?>
<!-- Generator: Adobe Illustrator 15.0.0, SVG Export Plug-In . SVG Version: 6.00 Build 0)  -->
<!DOCTYPE svg PUBLIC "-//W3C//DTD SVG 1.1//EN" "http://www.w3.org/Graphics/SVG/1.1/DTD/svg11.dtd">
<svg version="1.1" id="Слой_1" xmlns="http://www.w3.org/2000/svg" xmlns:xlink="http://www.w3.org/1999/xlink" x="0px" y="0px"
	 width="45.051px" height="41.354px" viewBox="0 0 45.051 41.354" enable-background="new 0 0 45.051 41.354" xml:space="preserve">
<circle cx="22.424" cy="25.202" r="3.276"/>
<path d="M28.53,31.823c-0.113-0.907-0.885-1.589-1.799-1.589l-8.928-0.01c-0.939-0.001-1.723,0.715-1.808,1.648l-0.865,9.48h14.59
	L28.53,31.823z"/>
<polygon points="16.085,28.264 12.866,25.045 16.085,21.826 14.492,20.233 9.68,25.045 14.492,29.857 "/>
<polygon points="19.205,18.707 22.424,15.487 25.643,18.707 27.236,17.113 22.424,12.301 17.612,17.113 "/>
<polygon points="28.762,21.826 31.981,25.045 28.762,28.264 30.356,29.857 35.168,25.045 30.356,20.233 "/>
<circle cx="22.525" cy="1.775" r="1.775"/>
<path d="M26.477,10.18l-0.645-5.162c-0.061-0.492-0.479-0.86-0.973-0.861l-4.836-0.005c-0.51,0-0.934,0.387-0.98,0.894l-0.469,5.135
	L26.477,10.18L26.477,10.18z"/>
<circle cx="41.1" cy="20.172" r="1.774"/>
<path d="M45.051,28.578l-0.645-5.163c-0.061-0.491-0.479-0.859-0.973-0.86l-4.836-0.005c-0.51,0-0.934,0.387-0.98,0.894
	l-0.469,5.135H45.051L45.051,28.578z"/>
<circle cx="3.951" cy="20.096" r="1.774"/>
<path d="M7.902,28.503l-0.645-5.164c-0.061-0.49-0.479-0.859-0.973-0.859l-4.836-0.006c-0.51,0-0.934,0.387-0.98,0.895L0,28.503
	H7.902L7.902,28.503z"/>
</svg>
