<?xml version="1.0" encoding="utf-8"?>
<!-- Generator: Adobe Illustrator 15.0.0, SVG Export Plug-In . SVG Version: 6.00 Build 0)  -->
<!DOCTYPE svg PUBLIC "-//W3C//DTD SVG 1.1//EN" "http://www.w3.org/Graphics/SVG/1.1/DTD/svg11.dtd">
<svg version="1.1" id="Слой_1" xmlns="http://www.w3.org/2000/svg" xmlns:xlink="http://www.w3.org/1999/xlink" x="0px" y="0px"
	 width="64px" height="38.024px" viewBox="0 0 64 38.024" enable-background="new 0 0 64 38.024" xml:space="preserve">
<g>
	<path fill="#010101" d="M48.988,2.967c0,0-0.982,1.085-4.34,0.517L31.991,1.162c0,0-1.656-0.095-3.258,0.628l-7.027,2.457
		c0,0-3.767,2.932-6.97,6.341c0,0-1.082,2.194,2.999,1.936c0,0,4.701-1.24,6.302-3.306c0,0,4.518-1.776,5.785-1.343l17.41,11.675
		c0,0,3.152,3.101,3.408,4.237c0,0,3.1-2.791,4.236-4.031l2.943-1.446C57.821,18.31,52.76,4,48.988,2.967z"/>
	<path fill="#010101" d="M9.575,24.885c0,0-1.291,3.255,0.568,4.236c0,0,1.292,0.93,2.996-0.103l0.62-1.085
		C13.76,27.934,10.453,25.039,9.575,24.885z"/>
	<path fill="#010101" d="M17.37,32.01l1.053-2.474c0,0,0.411-2.038-1.602-2.62c0,0-1.739-0.582-2.013,0.34l-1.329,2.184
		c0,0-0.32,1.504,0.046,1.989c0,0,0.778,1.31,1.601,1.455C15.126,32.885,16.545,33.224,17.37,32.01z"/>
	<path fill="#010101" d="M21.89,34.165l1.059-2.521c0,0,0.414-2.076-1.611-2.668c0,0-1.749-0.595-2.025,0.345l-1.335,2.224
		c0,0-0.322,1.533,0.045,2.026c0,0,0.783,1.334,1.611,1.483C19.634,35.055,21.061,35.4,21.89,34.165z"/>
	<path fill="#010101" d="M28.411,37.146c0,0-2.227-1.657-2.423-1.987c0,0-1.188-1.986-2.623-1.372c0,0-2.078,0.709-1.237,2.413
		l1.979,1.703C24.106,37.904,25.294,38.471,28.411,37.146z"/>
</g>
<path fill="#010101" d="M12.759,6.071c0,0,2.04,0.796,2.686,0.746l2.222,0.185c0,0-1.611,1.555-1.859,1.705l-1.963,1.962
	c0,0-0.371,2.245,2.116,2.643c0,0,2.984,0.298,7.709-3.183c0,0,2.862-1.214,4.177-1.442l1.688,0.147l17.064,11.392
	c0,0,3.133,2.835,3.282,4.277c0,0,0.845,2.388-1.144,3.93c0,0-0.847,1.293-3.332-0.148l-7.859-5.472c0,0,5.621,4.129,5.919,6.517
	c0,0,0.446,0.994-0.597,2.984c0,0-0.945,1.738-3.633,1.143l-5.369-4.773l-0.391,0.133c0,0,4.979,4.949,5.027,5.198
	c0,0,1.183,2.725-3.443,2.327l-4.726-3.631l-1.84-0.796l-0.249,0.149c0,0,2.354,1.327,5.289,4.063c0,0-0.115,1.757-3.548,1.358
	l-3.78-2.686c0,0-0.616-2.267-2.804-1.969c0,0,1.507-3.094-0.93-4.287c0,0-1.787-0.856-3.179-0.012c0,0-0.099-2.438-2.387-2.685
	c0,0-2.089-0.498-2.587,1.441l-5.691-4.222C8.626,23.066,12.063,5.226,12.759,6.071z"/>
<path fill="#010101" d="M11.651,5.218c0,0-4.211,14.989-4.056,17.882L0,21.775L5.682,3.259L11.651,5.218z"/>
<path fill="#010101" d="M49.638,2.428c0,0,3.151,1.292,6.046,7.956c0,0,3.15,7.8,3.15,8.627L64,17.46c0,0-4.494-13.482-8.938-17.46
	L49.638,2.428z"/>
</svg>
