<?xml version="1.0" encoding="utf-8"?>
<!-- Generator: Adobe Illustrator 15.0.0, SVG Export Plug-In . SVG Version: 6.00 Build 0)  -->
<!DOCTYPE svg PUBLIC "-//W3C//DTD SVG 1.1//EN" "http://www.w3.org/Graphics/SVG/1.1/DTD/svg11.dtd">
<svg version="1.1" id="Слой_1" xmlns="http://www.w3.org/2000/svg" xmlns:xlink="http://www.w3.org/1999/xlink" x="0px" y="0px"
	 width="34.686px" height="46.865px" viewBox="0 0 34.686 46.865" enable-background="new 0 0 34.686 46.865" xml:space="preserve">
<g>
	<path d="M7.973,30.285l1.229,3.021c0.153,0.461,0.666,0.666,1.126,0.563l3.123-0.922c0.307-0.102,0.666,0,0.87,0.205l2.407,2.201
		c0.358,0.308,0.921,0.308,1.229,0l2.407-2.201c0.256-0.205,0.563-0.307,0.869-0.205l3.123,0.922
		c0.461,0.153,0.974-0.103,1.127-0.563l1.229-3.021c0.104-0.307,0.41-0.512,0.717-0.563l3.227-0.512
		c0.461-0.052,0.818-0.513,0.768-0.974l-0.205-3.276c0-0.308,0.154-0.614,0.41-0.819l2.662-1.843
		c0.41-0.256,0.512-0.819,0.256-1.229l-1.587-2.816c-0.153-0.307-0.153-0.614,0-0.921l1.587-2.816
		c0.256-0.41,0.103-0.973-0.256-1.229l-2.662-1.843c-0.256-0.205-0.41-0.512-0.41-0.819l0.205-3.226
		c0.051-0.46-0.307-0.921-0.768-0.973l-3.227-0.512c-0.307-0.051-0.613-0.256-0.717-0.563l-1.178-3.072
		c-0.152-0.461-0.665-0.666-1.126-0.563l-3.123,0.922c-0.308,0.102-0.665,0-0.87-0.205L18.009,0.23
		c-0.359-0.307-0.922-0.307-1.229,0l-2.458,2.202c-0.256,0.205-0.563,0.307-0.87,0.205l-3.123-0.922
		C9.868,1.562,9.355,1.818,9.202,2.279L7.973,5.299c-0.103,0.307-0.41,0.512-0.717,0.563L4.031,6.375
		C3.57,6.426,3.211,6.887,3.263,7.348l0.205,3.226c0,0.307-0.154,0.614-0.41,0.819l-2.663,1.843
		c-0.41,0.256-0.512,0.819-0.256,1.229l1.587,2.816c0.154,0.307,0.154,0.614,0,0.921L0.14,21.018
		c-0.256,0.41-0.103,0.973,0.256,1.229l2.663,1.843c0.256,0.205,0.41,0.512,0.41,0.819l-0.205,3.226
		c-0.051,0.461,0.307,0.922,0.768,0.973l3.226,0.512C7.563,29.773,7.819,29.979,7.973,30.285z M9.304,14.413l5.12-0.358l1.946-4.762
		c0.358-0.87,1.639-0.87,1.996,0l1.946,4.762l5.12,0.358c0.973,0.051,1.331,1.28,0.614,1.895l-3.942,3.328l1.229,4.966
		c0.256,0.922-0.768,1.689-1.587,1.178l-4.403-2.713l-4.352,2.713c-0.819,0.512-1.843-0.256-1.587-1.178l1.229-4.966L8.69,16.308
		C7.922,15.693,8.332,14.464,9.304,14.413z"/>
	<path d="M24.665,36.02c-0.309,0-0.615-0.051-0.871-0.154l-2.457-0.768l-1.946,1.792c-0.052,0.052-0.153,0.103-0.204,0.153
		l3.071,9.523c0.103,0.308,0.563,0.41,0.769,0.154l2.252-2.867c0.104-0.154,0.308-0.205,0.461-0.154l3.482,1.024
		c0.357,0.103,0.665-0.205,0.512-0.563l-2.918-9.012C26.251,35.661,25.483,36.02,24.665,36.02z"/>
	<path d="M5.516,44.672l3.481-1.023c0.154-0.051,0.358,0,0.461,0.153l2.253,2.867c0.205,0.256,0.666,0.205,0.768-0.153l3.072-9.523
		c-0.051-0.051-0.154-0.103-0.205-0.153l-1.895-1.741l-2.458,0.768c-0.307,0.104-0.563,0.154-0.871,0.154
		c-0.819,0-1.587-0.358-2.15-0.922l-2.918,9.012C4.85,44.467,5.157,44.774,5.516,44.672z"/>
</g>
</svg>
