<?xml version="1.0" encoding="UTF-8" standalone="no"?>
<svg width="47px" height="36px" viewBox="0 0 47 36" version="1.1" xmlns="http://www.w3.org/2000/svg" xmlns:xlink="http://www.w3.org/1999/xlink" xmlns:sketch="http://www.bohemiancoding.com/sketch/ns">
    <!-- Generator: Sketch 3.4.2 (15857) - http://www.bohemiancoding.com/sketch -->
    <title>Page-1</title>
    <desc>Created with Sketch.</desc>
    <defs></defs>
    <g id="Page-1" stroke="none" stroke-width="1" sketch:type="MSPage">
        <g id="icon__landing" sketch:type="MSLayerGroup">
            <g id="Page-1" sketch:type="MSShapeGroup">
                <g id="icon__landing">
                    <path d="M31.715,18.501 L15.284,18.501 C14.904,18.501 14.596,18.193 14.596,17.813 C14.596,17.433 14.904,17.125 15.284,17.125 L31.715,17.125 C32.096,17.125 32.403,17.433 32.403,17.813 C32.403,18.193 32.096,18.501 31.715,18.501 L31.715,18.501 L31.715,18.501 Z" id="Shape"></path>
                    <path d="M25.691,21.023 L21.307,21.023 C20.927,21.023 20.619,20.713 20.619,20.335 C20.619,19.954 20.927,19.647 21.307,19.647 L25.691,19.647 C26.072,19.647 26.379,19.956 26.379,20.335 C26.38,20.715 26.072,21.023 25.691,21.023 L25.691,21.023 L25.691,21.023 Z" id="Shape"></path>
                    <path d="M15.245,32.916 L6.555,32.916 C6.175,32.916 5.867,32.607 5.867,32.228 L5.867,23.538 C5.867,23.159 6.175,22.85 6.555,22.85 L15.246,22.85 C15.626,22.85 15.934,23.16 15.934,23.538 L15.934,32.228 C15.933,32.607 15.625,32.916 15.245,32.916 L15.245,32.916 L15.245,32.916 Z M7.242,31.539 L14.556,31.539 L14.556,24.226 L7.242,24.226 L7.242,31.539 L7.242,31.539 L7.242,31.539 Z" id="Shape"></path>
                    <path d="M27.846,32.916 L19.155,32.916 C18.775,32.916 18.467,32.607 18.467,32.228 L18.467,23.538 C18.467,23.159 18.776,22.85 19.155,22.85 L27.846,22.85 C28.225,22.85 28.534,23.16 28.534,23.538 L28.534,32.228 C28.533,32.607 28.225,32.916 27.846,32.916 L27.846,32.916 L27.846,32.916 Z M19.842,31.539 L27.156,31.539 L27.156,24.226 L19.842,24.226 L19.842,31.539 L19.842,31.539 L19.842,31.539 Z" id="Shape"></path>
                    <path d="M40.445,32.916 L31.755,32.916 C31.375,32.916 31.067,32.607 31.067,32.228 L31.067,23.538 C31.067,23.159 31.377,22.85 31.755,22.85 L40.445,22.85 C40.825,22.85 41.133,23.16 41.133,23.538 L41.133,32.228 C41.133,32.607 40.825,32.916 40.445,32.916 L40.445,32.916 L40.445,32.916 Z M32.443,31.539 L39.756,31.539 L39.756,24.226 L32.443,24.226 L32.443,31.539 L32.443,31.539 L32.443,31.539 Z" id="Shape"></path>
                    <path d="M23.5,15.544 C22.057,15.544 20.884,14.371 20.884,12.928 C20.884,11.485 22.057,10.312 23.5,10.312 C24.941,10.312 26.115,11.485 26.115,12.928 C26.115,14.371 24.941,15.544 23.5,15.544 L23.5,15.544 L23.5,15.544 Z M23.5,11.689 C22.816,11.689 22.26,12.245 22.26,12.929 C22.26,13.613 22.817,14.169 23.5,14.169 C24.183,14.169 24.74,13.613 24.74,12.929 C24.74,12.245 24.184,11.689 23.5,11.689 L23.5,11.689 L23.5,11.689 Z" id="Shape"></path>
                    <path d="M45.852,0.412 L1.148,0.412 C0.766,0.412 0.46,0.718 0.46,1.1 L0.46,35.101 C0.46,35.482 0.766,35.789 1.148,35.789 L45.852,35.789 C46.231,35.789 46.54,35.482 46.54,35.101 L46.54,1.1 C46.54,0.718 46.23,0.412 45.852,0.412 L45.852,0.412 L45.852,0.412 Z M45.164,34.412 L1.836,34.412 L1.836,8.028 L45.164,8.028 L45.164,34.412 L45.164,34.412 L45.164,34.412 Z M45.164,6.652 L1.836,6.652 L1.836,1.787 L45.164,1.787 L45.164,6.652 L45.164,6.652 L45.164,6.652 Z" id="Shape"></path>
                    <circle id="Oval" cx="4.645" cy="4.129" r="1.077"></circle>
                    <circle id="Oval" cx="8.099" cy="4.129" r="1.077"></circle>
                    <circle id="Oval" cx="11.552" cy="4.129" r="1.077"></circle>
                </g>
            </g>
        </g>
    </g>
</svg>