<?xml version="1.0" encoding="utf-8"?>
<!-- Generator: Adobe Illustrator 15.0.0, SVG Export Plug-In . SVG Version: 6.00 Build 0)  -->
<!DOCTYPE svg PUBLIC "-//W3C//DTD SVG 1.1//EN" "http://www.w3.org/Graphics/SVG/1.1/DTD/svg11.dtd">
<svg version="1.1" id="Слой_1" xmlns="http://www.w3.org/2000/svg" xmlns:xlink="http://www.w3.org/1999/xlink" x="0px" y="0px"
	 width="49.964px" height="50.599px" viewBox="0 0 49.964 50.599" enable-background="new 0 0 49.964 50.599" xml:space="preserve">
<path d="M47.986,10.875c1.093,0,1.978-0.885,1.978-1.978c0-1.092-0.885-1.977-1.978-1.977c-0.937,0-1.717,0.653-1.921,1.526
	l-9.748,1.978c-0.471-0.924-1.352-1.601-2.403-1.791l-0.153-4.296c0.807-0.345,1.373-1.145,1.373-2.079
	c0-1.248-1.012-2.259-2.26-2.259s-2.26,1.012-2.26,2.26c0,1.068,0.742,1.957,1.738,2.193l0.15,4.227
	c-0.838,0.207-1.551,0.725-2.012,1.427L22.5,5.273c0.037-0.151,0.063-0.308,0.063-0.471c0-1.093-0.885-1.978-1.978-1.978
	c-1.091,0-1.977,0.885-1.977,1.978c0,1.092,0.885,1.977,1.977,1.977c0.412,0,0.795-0.127,1.111-0.342l8.286,5.012
	c-0.025,0.164-0.041,0.33-0.041,0.5c0,0.493,0.107,0.96,0.298,1.382L17.652,25.889c-0.581-0.475-1.323-0.761-2.132-0.761
	c-0.688,0-1.326,0.207-1.859,0.56l-5.974-5.974c0.315-0.448,0.504-0.992,0.504-1.581c0-1.521-1.233-2.754-2.754-2.754
	s-2.754,1.233-2.754,2.754c0,1.521,1.233,2.754,2.754,2.754c0.417,0,0.808-0.1,1.161-0.265l6.075,6.075
	c-0.331,0.521-0.525,1.139-0.525,1.802c0,0.255,0.031,0.501,0.084,0.739l-8.608,2.893c-0.354-0.533-0.959-0.885-1.647-0.885
	C0.885,31.246,0,32.131,0,33.223c0,1.093,0.885,1.977,1.978,1.977c0.99,0,1.803-0.729,1.947-1.68l8.908-2.992
	c0.511,0.676,1.269,1.151,2.142,1.293l-0.001,5.062c-1.01,0.225-1.767,1.124-1.767,2.202c0,1.248,1.012,2.26,2.26,2.26
	c1.248,0,2.26-1.012,2.26-2.26c0-0.92-0.552-1.709-1.341-2.061l0.002-5.271c0.972-0.259,1.769-0.938,2.187-1.833l11.393,2.294
	c-0.016,0.12-0.036,0.238-0.036,0.362c0,1.449,1.175,2.624,2.624,2.624c0.191,0,0.377-0.023,0.557-0.062l1.863,4.602
	c-0.538,0.429-0.89,1.08-0.89,1.82c0,0.379,0.099,0.732,0.261,1.049l-3.781,3.965c-0.018-0.008-0.032-0.018-0.051-0.024
	c-1.026-0.37-2.16,0.164-2.529,1.19c-0.369,1.027,0.164,2.16,1.191,2.529c1.028,0.37,2.16-0.164,2.529-1.191
	c0.191-0.529,0.138-1.086-0.096-1.553l3.728-3.91c0.323,0.17,0.687,0.275,1.077,0.275c0.612,0,1.164-0.241,1.58-0.627l7.012,4.713
	c-0.071,0.203-0.117,0.417-0.117,0.646c0,1.093,0.885,1.977,1.977,1.977s1.977-0.886,1.977-1.977c0-1.093-0.885-1.978-1.977-1.978
	c-0.342,0-0.66,0.096-0.941,0.249l-7.229-4.859c0.031-0.153,0.049-0.312,0.049-0.474c0-1.288-1.043-2.331-2.33-2.331
	c-0.041,0-0.078,0.01-0.118,0.011l-1.923-4.78c0.495-0.478,0.805-1.144,0.805-1.885c0-1.449-1.175-2.624-2.623-2.624
	c-0.816,0-1.537,0.381-2.018,0.965l-11.648-2.381c0-0.013,0.001-0.024,0.001-0.037c0-0.54-0.13-1.049-0.356-1.502l12.544-12.529
	c0.595,0.528,1.376,0.851,2.233,0.851c0.693,0,1.336-0.21,1.872-0.568l6.504,6.504c-0.126,0.282-0.2,0.592-0.2,0.92
	c0,1.249,1.012,2.26,2.26,2.26s2.26-1.011,2.26-2.26s-1.012-2.26-2.26-2.26c-0.402,0-0.775,0.114-1.103,0.299l-6.478-6.478
	c0.325-0.519,0.517-1.13,0.517-1.787c0-0.053-0.006-0.104-0.009-0.156l9.588-1.944C46.599,10.458,47.241,10.875,47.986,10.875z"/>
</svg>
